# xmcd
#
# Track frame offsets: 
#        150
#        15977
#        27767
#        45005
#        57855
#        73492
#        93902
#        116990
#        139487
#        153292
#        170817
#
# Disc length: 2611 seconds
#
# Revision: 2
# Processed by: cddbd v1.5.2PL0 Copyright (c) Steve Scherf et al.
# Submitted via: ExactAudioCopyFreeDBPlugin 1.0
#
DISCID=900a310b
DTITLE=Aretha Franklin - Let Me in Your Life
DYEAR=1974
DGENRE=Soul
TTITLE0=Let Me In Your Life
TTITLE1=Every Natural Thing
TTITLE2=Ain't Nothing Like The Real Thing
TTITLE3=I'm In Love
TTITLE4=Until You Come Back To Me (That's What I'm Gonna Do)
TTITLE5=The Masquerade Is Over
TTITLE6=With Pen In Hand
TTITLE7=Oh Baby
TTITLE8=Eight Days On The Road
TTITLE9=If You Don't Think
TTITLE10=A Song For You
EXTD=
EXTT0=
EXTT1=
EXTT2=
EXTT3=
EXTT4=
EXTT5=
EXTT6=
EXTT7=
EXTT8=
EXTT9=
EXTT10=
PLAYORDER=
